<svg height="511pt" viewBox="-27 0 511 511.99982" width="511pt" xmlns="http://www.w3.org/2000/svg"><path d="m78.160156 186.066406c0 18.664063-15.128906 33.792969-33.792968 33.792969-18.664063 0-33.796876-15.128906-33.796876-33.792969 0-18.664062 15.132813-33.796875 33.796876-33.796875 18.664062 0 33.792968 15.132813 33.792968 33.796875zm0 0" fill="#d1ddde"/><path d="m259.453125 10.066406 31.929687 79.238282h155.890626zm0 0" fill="#d1ddde"/><path d="m447.273438 89.304688h-155.890626l-31.929687 79.242187zm0 0" fill="#f5737f"/><path d="m398.492188 371.085938c0 18.664062-15.132813 33.796874-33.796876 33.796874-18.664062 0-33.792968-15.132812-33.792968-33.796874 0-18.664063 15.128906-33.792969 33.792968-33.792969 18.664063 0 33.796876 15.128906 33.796876 33.792969zm0 0" fill="#d1ddde"/><path d="m78.160156 468.128906c0 18.667969-15.128906 33.796875-33.792968 33.796875-18.664063 0-33.796876-15.128906-33.796876-33.796875 0-18.664062 15.132813-33.792968 33.796876-33.792968 18.664062 0 33.792968 15.128906 33.792968 33.792968zm0 0" fill="#d1ddde"/><path d="m457.300781 90.203125c.386719-4.304687-2.121093-8.496094-6.109375-10.179687l-187.820312-79.238282c-8.078125-3.410156-16.539063 4.90625-13.261719 13.046875l26.355469 65.402344h-135.335938c-21.988281 0-43.105468 6.625-61.074218 19.167969-15.96875 11.140625-28.4375 26.210937-36.355469 43.8125-23.878907.359375-43.199219 19.886718-43.199219 43.851562s19.320312 43.492188 43.199219 43.851563c7.910156 17.582031 20.359375 32.636719 36.304687 43.777343 17.980469 12.5625 39.117188 19.203126 61.125 19.203126h29.992188c12.933594 0 12.953125-20.144532 0-20.144532h-29.992188c-17.859375 0-35.007812-5.386718-49.585937-15.574218-11.8125-8.25-21.261719-19.144532-27.703125-31.820313 14.445312-7.1875 24.394531-22.09375 24.394531-39.292969 0-17.195312-9.949219-32.105468-24.394531-39.292968 6.453125-12.691407 15.914062-23.597657 27.742187-31.851563 14.570313-10.167969 31.703125-15.542969 49.546875-15.542969h135.335938l-26.355469 65.402344c-3.269531 8.125 5.164063 16.460938 13.261719 13.046875l187.816406-79.242187c3.394531-1.433594 5.785156-4.71875 6.113281-8.382813.382813-4.304687-.328125 3.664063 0 0zm-412.933593 119.585937c-13.082032 0-23.722657-10.644531-23.722657-23.722656 0-13.082031 10.640625-23.722656 23.722657-23.722656 13.078124 0 23.722656 10.640625 23.722656 23.722656 0 13.078125-10.640625 23.722656-23.722656 23.722656zm353.117187-130.554687h-99.300781l-20.335938-50.476563zm-119.636719 70.621094 20.335938-50.476563h99.300781zm0 0"/><path d="m364.695312 327.21875c-.648437 0-1.292968.023438-1.933593.050781-17.738281-33.316406-52.652344-54.515625-90.71875-54.515625h-19.785157c-12.933593 0-12.953124 20.144532 0 20.144532h19.785157c29.175781 0 56.054687 15.492187 70.855469 40.144531-13.175782 7.578125-22.070313 21.789062-22.070313 38.046875 0 17.734375 10.589844 33.039062 25.773437 39.945312-13.566406 28.464844-42.453124 47.023438-74.554687 47.023438h-184.992187c-4.566407-19.347656-21.964844-33.792969-42.6875-33.792969-24.1875 0-43.867188 19.675781-43.867188 43.867187 0 24.1875 19.679688 43.867188 43.867188 43.867188 20.722656 0 38.121093-14.445312 42.6875-33.792969h184.988281c41.710937 0 79.042969-25.191406 94.867187-63.308593 23.164063-1.15625 41.652344-20.363282 41.652344-43.8125 0-24.1875-19.675781-43.867188-43.867188-43.867188zm-320.328124 164.632812c-13.082032 0-23.722657-10.640624-23.722657-23.71875 0-13.082031 10.640625-23.722656 23.722657-23.722656 13.078124 0 23.722656 10.640625 23.722656 23.722656 0 13.078126-10.640625 23.71875-23.722656 23.71875zm320.328124-97.042968c-13.078124 0-23.71875-10.640625-23.71875-23.722656 0-13.078126 10.640626-23.71875 23.71875-23.71875 13.082032 0 23.722657 10.640624 23.722657 23.71875 0 13.082031-10.640625 23.722656-23.722657 23.722656zm0 0"/><path d="m218.75 289.945312c3.875-3.871093 3.875-10.371093 0-14.242187-3.875-3.875-10.367188-3.867187-14.242188 0-3.761718 3.757813-3.886718 10.007813-.296874 13.917969 3.8125 4.160156 10.539062 4.324218 14.539062.324218zm0 0"/></svg>